<svg xmlns="http://www.w3.org/2000/svg" style="display: none;"><symbol id="icon-remote" viewBox="0 0 32 32"><title>remote</title><g class="nc-icon-wrapper"><path fill="none" stroke="currentColor" stroke-linecap="square" stroke-miterlimit="10" d="M17,31H7 c-1.105,0-2-0.895-2-2V11c0-1.105,0.895-2,2-2h10c1.105,0,2,0.895,2,2v18C19,30.105,18.105,31,17,31z" stroke-linejoin="miter"/> <path data-color="color-2" fill="none" stroke-linecap="square" stroke-miterlimit="10" d="M23,10 c0-2.761-2.239-5-5-5" stroke-linejoin="miter"/> <path data-color="color-2" fill="none" stroke-linecap="square" stroke-miterlimit="10" d="M27,10 c0-4.971-4.029-9-9-9" stroke-linejoin="miter"/> <circle fill="none" stroke="currentColor" stroke-linecap="square" stroke-miterlimit="10" cx="12" cy="16" r="2" stroke-linejoin="miter"/></g></symbol><symbol id="icon-dots-to-close" viewBox="0 0 32 32"><title>dots to close</title><g class="nc-icon-wrapper"><g class="nc-interact_dots-close-o-32"> <g class="nc-dot_left"> <circle cx="6" cy="16" r="1" fill="currentColor" data-cap="butt" data-stroke="none" stroke-linecap="butt" stroke="none"/> <circle cx="6" cy="16" r="1" fill="none" stroke="currentColor" stroke-linecap="square" stroke-linejoin="miter"/> </g> <g class="nc-dot_right"> <circle cx="26" cy="16" r="1" fill="currentColor" data-cap="butt" data-stroke="none" stroke-linecap="butt" stroke="none"/> <circle cx="26" cy="16" r="1" fill="none" stroke="currentColor" stroke-linecap="square" stroke-linejoin="miter"/> </g> <g class="nc-dot_center"> <circle cx="16" cy="16" r="1" fill="currentColor" data-cap="butt" data-stroke="none" stroke-linecap="butt" stroke="none"/> <circle cx="16" cy="16" r="1" fill="none" stroke="currentColor" stroke-linecap="square" stroke-linejoin="miter"/> </g> <path class="nc-line_top-right" data-cap="none" fill="none" stroke="currentColor" stroke-linecap="round" stroke-linejoin="round" d="M16 16L27 5" stroke-dasharray="15.56 15.56" stroke-dashoffset="15.56" opacity="0"/> <path class="nc-line_bottom-left" data-cap="none" fill="none" stroke="currentColor" stroke-linecap="round" stroke-linejoin="round" d="M5 27l11-11" stroke-dasharray="15.56 15.56" stroke-dashoffset="15.56" opacity="0"/> <path class="nc-line_bottom-right" data-cap="none" fill="none" stroke="currentColor" stroke-linecap="round" stroke-linejoin="round" d="M16 16l11 11" stroke-dasharray="15.56 15.56" stroke-dashoffset="15.56" opacity="0"/> <path class="nc-line_top-left" data-cap="none" fill="none" stroke="currentColor" stroke-linecap="round" stroke-linejoin="round" d="M5 5l11 11" stroke-dasharray="15.56 15.56" stroke-dashoffset="15.56" opacity="0"/> </g> <script>!function(){function t(e){var i=e.parentNode;if("svg"!==i.tagName)i=t(i);return i;}function e(t,e){for(var i in e)t.setAttribute(i,e[i])}function i(t,e,i,n){return 1>(t/=n/2)?i/2*t*t*t*t+e:-i/2*((t-=2)*t*t*t-2)+e}function n(t){this.element=t,this.dotLeft=this.element.querySelectorAll(".nc-dot_left")[0],this.dotRight=this.element.querySelectorAll(".nc-dot_right")[0],this.lineTopRight=this.element.querySelectorAll(".nc-line_top-right")[0],this.lineTopLeft=this.element.querySelectorAll(".nc-line_top-left")[0],this.lineBottomRight=this.element.querySelectorAll(".nc-line_bottom-right")[0],this.lineBottomLeft=this.element.querySelectorAll(".nc-line_bottom-left")[0],this.lineLength=Number(this.lineTopRight.getTotalLength().toFixed(2)),this.time={start:null,total:360},this.status={interacted:!1,animating:!1},this.init()}if(!window.requestAnimationFrame){var o=null;window.requestAnimationFrame=function(t,e){var i=(new Date).getTime();o||(o=i);var n=Math.max(0,16-(i-o)),s=window.setTimeout(function(){t(i+n)},n);return o=i+n,s}}n.prototype.init=function(){var t=this;this.element.addEventListener("click",function(){t.status.animating||(t.status.animating=!0,window.requestAnimationFrame(t.triggerAnimation.bind(t)))})},n.prototype.triggerAnimation=function(t){var e=this.getProgress(t),i=this.status.interacted?this.time.total-e:e;this.animateIcon(i),this.checkProgress(e)},n.prototype.getProgress=function(t){return this.time.start||(this.time.start=t),t-this.time.start},n.prototype.checkProgress=function(t){var e=this;this.time.total>t?window.requestAnimationFrame(e.triggerAnimation.bind(e)):(this.status={interacted:!this.status.interacted,animating:!1},this.time.start=null)},n.prototype.animateIcon=function(t){if(t>this.time.total)(t=this.time.total);if(0>t)(t=0);var n=i(Math.min(t,this.time.total/2),0,10,this.time.total/2),o=i(Math.max(t-this.time.total/2,0),this.lineLength,-this.lineLength,this.time.total/2),s=t>this.time.total/2?1:0;this.dotLeft.setAttribute("transform","translate("+n+")"),this.dotRight.setAttribute("transform","translate(-"+n+")"),e(this.lineTopRight,{"stroke-dashoffset":o,opacity:s}),e(this.lineTopLeft,{"stroke-dashoffset":-o,opacity:s}),e(this.lineBottomRight,{"stroke-dashoffset":o,opacity:s}),e(this.lineBottomLeft,{"stroke-dashoffset":-o,opacity:s})};var s=document.getElementsByClassName("nc-interact_dots-close-o-32");if(s)for(var r=0;s.length>r;r++)new n(t(s[r]))}();</script></g></symbol><symbol id="icon-web-design" viewBox="0 0 32 32"><title>web design</title><g class="nc-icon-wrapper"><line fill="none" stroke="currentColor" stroke-linecap="square" stroke-miterlimit="10" x1="7" y1="3" x2="7" y2="8" stroke-linejoin="miter"/> <polyline data-cap="butt" fill="none" stroke="currentColor" stroke-miterlimit="10" points="31,11 31,29 1,29 1,3 26.003,3 " stroke-linejoin="miter" stroke-linecap="butt"/> <line data-cap="butt" fill="none" stroke="currentColor" stroke-miterlimit="10" x1="1" y1="8" x2="21.003" y2="8" stroke-linejoin="miter" stroke-linecap="butt"/> <path data-color="color-2" fill="none" stroke-linecap="square" stroke-miterlimit="10" d="M22.003,13 l-3-3l8.379-8.379c0.828-0.828,2.172-0.828,3,0l0,0c0.828,0.828,0.828,2.172,0,3L22.003,13z" stroke-linejoin="miter"/> <path data-color="color-2" fill="none" stroke-linecap="square" stroke-miterlimit="10" d=" M13.91,13.874c1.165-1.165,3.054-1.165,4.22,0s1.165,3.055,0,4.22S13.003,19,13.003,19S12.894,14.89,13.91,13.874z" stroke-linejoin="miter"/></g></symbol><symbol id="icon-sound-wave" viewBox="0 0 32 32"><title>sound wave</title><g class="nc-icon-wrapper"><path fill="currentColor" d="M13,27c-0.421,0-0.799-0.264-0.941-0.664L7.77,14.328l-1.912,3.187C5.677,17.816,5.352,18,5,18H0v-2h4.434 l2.709-4.515c0.198-0.331,0.563-0.521,0.956-0.48c0.385,0.038,0.713,0.294,0.843,0.659l3.89,10.89L17.03,5.757 C17.14,5.32,17.528,5.009,17.979,5c0.438-0.012,0.853,0.285,0.979,0.718l4.396,14.946l2.812-4.219C26.354,16.167,26.666,16,27,16h5 v2h-4.465l-3.703,5.555c-0.216,0.323-0.595,0.49-0.982,0.434c-0.384-0.059-0.699-0.334-0.809-0.707L18.078,9.81L13.97,26.243 c-0.106,0.427-0.48,0.734-0.921,0.756C13.032,27,13.016,27,13,27z"/></g></symbol><symbol id="icon-speaker-05" viewBox="0 0 32 32"><title>speaker 05</title><g class="nc-icon-wrapper"><rect x="5" y="1" fill="none" stroke="currentColor" stroke-linecap="square" stroke-miterlimit="10" width="22" height="30" stroke-linejoin="miter"/> <circle data-color="color-2" fill="none" stroke-linecap="square" stroke-miterlimit="10" cx="16" cy="21" r="6" stroke-linejoin="miter"/> <circle data-color="color-2" fill="none" stroke-linecap="square" stroke-miterlimit="10" cx="16" cy="8" r="3" stroke-linejoin="miter"/> <circle fill="none" stroke="currentColor" stroke-linecap="square" stroke-miterlimit="10" cx="16" cy="21" r="1" stroke-linejoin="miter"/> <circle data-stroke="none" fill="currentColor" cx="16" cy="21" r="1" stroke-linejoin="miter" stroke-linecap="square" stroke="none"/></g></symbol><symbol id="icon-c-info-2" viewBox="0 0 32 32"><title>c info 2</title><g class="nc-icon-wrapper"><path fill="currentColor" d="M16,0C7.178,0,0,7.178,0,16s7.178,16,16,16s16-7.178,16-16S24.822,0,16,0z M18,7c1.105,0,2,0.895,2,2 s-0.895,2-2,2s-2-0.895-2-2S16.895,7,18,7z M19.763,24.046C17.944,24.762,17.413,25,16.245,25c-0.954,0-1.696-0.233-2.225-0.698 c-1.045-0.92-0.869-2.248-0.542-3.608l0.984-3.483c0.19-0.717,0.575-2.182,0.036-2.696c-0.539-0.514-1.794-0.189-2.524,0.083 l0.263-1.073c1.054-0.429,2.386-0.954,3.523-0.954c1.71,0,2.961,0.855,2.961,2.469c0,0.151-0.018,0.417-0.053,0.799 c-0.066,0.701-0.086,0.655-1.178,4.521c-0.122,0.425-0.311,1.328-0.311,1.765c0,1.683,1.957,1.267,2.847,0.847L19.763,24.046z"/></g></symbol><symbol id="icon-wifi-router" viewBox="0 0 16 16"><title>wifi router</title><g class="nc-icon-wrapper"><path d="M9.5.5a6,6,0,0,1,6,6" fill="none" stroke-linecap="round" stroke-linejoin="round" data-color="color-2" stroke-width="1"/> <path d="M9.5,3.5a3,3,0,0,1,3,3" fill="none" stroke-linecap="round" stroke-linejoin="round" data-color="color-2" stroke-width="1"/> <rect x="0.5" y="10.5" width="15" height="5" fill="none" stroke="currentColor" stroke-linecap="round" stroke-linejoin="round" stroke-width="1"/> <line x1="4.5" y1="10.5" x2="8.5" y2="6.5" fill="none" stroke="currentColor" stroke-linecap="round" stroke-linejoin="round" stroke-width="1"/></g></symbol><symbol id="icon-info" viewBox="0 0 32 32"><title>info</title><g class="nc-icon-wrapper"><path d="M20.173,28.478l-.307,1.312a27.076,27.076,0,0,1-3.015,1.056,7.774,7.774,0,0,1-1.928.3,3.272,3.272,0,0,1-2.461-.852,2.921,2.921,0,0,1-.82-2.1,6.213,6.213,0,0,1,.082-.986c.055-.343.144-.773.267-1.294l2.167-8.725c.108-.479.215-.993.317-1.539a7.746,7.746,0,0,0,.153-1.4,2.224,2.224,0,0,0-.378-1.529,2.251,2.251,0,0,0-1.546-.38,6.747,6.747,0,0,0-1.2.143q-.747.144-1.135.247l.307-1.313a20.2,20.2,0,0,1,2.869-1.066A8.089,8.089,0,0,1,15.557,10a3.234,3.234,0,0,1,2.44.8,3.007,3.007,0,0,1,.757,2.155,8.282,8.282,0,0,1-.082,1.007,10.186,10.186,0,0,1-.246,1.272L16.248,23.96q-.2.8-.357,1.571a6.753,6.753,0,0,0-.153,1.263,2.008,2.008,0,0,0,.521,1.6,2.646,2.646,0,0,0,1.687.43,8.609,8.609,0,0,0,1.113-.1A5.751,5.751,0,0,0,20.173,28.478Z" fill="currentColor"/> <circle data-color="color-2" cx="19" cy="4" r="3"/></g></symbol></svg>